<?xml version="1.0" encoding="UTF-8"?>
<svg id="Layer_2" data-name="Layer 2" xmlns="http://www.w3.org/2000/svg" viewBox="0 0 1741.54 148.61">
  <defs>
    <style>
      .cls-1 {
        fill: #72383d;
      }
    </style>
  </defs>
  <g id="Layer_1-2" data-name="Layer 1">
    <g>
      <path d="M0,144.01c.26-.51.64-.79,1.15-.84,5.16-.46,9.22-1.38,12.19-2.76,1.02-.92,1.53-2.45,1.53-4.6l-.08-7.51v-14.26l.15-6.21-.46-21.31.15-14.34c0-8.07-.15-13.47-.46-16.18-.1-1.02-.43-2.07-1-3.14-.92-.56-1.69-.89-2.3-1-2.2-.36-5.03-.64-8.51-.84-.72-.51-1.07-1.12-1.07-1.84,0-.25.1-.64.3-1.15,2.82-.15,7.81-.23,14.96-.23,3.32,0,5.94-.03,7.86-.08,2.73-.15,6.04-.38,9.93-.69,1.69.15,3.68.23,5.98.23.56.31.84.67.84,1.07,0,.31-.05.64-.15,1-.61.31-1.76.56-3.45.77-4.45.46-7.46,1.43-9.05,2.91-1.07,1.02-1.61,2.96-1.61,5.83l.08,1.46v48.68l.54,19.7c.05,6.24.2,9.67.46,10.31.26.64.66,1.14,1.23,1.49,1.79,1.07,4.52,1.79,8.2,2.15.92.1,1.81.28,2.68.54.31.67.46,1.23.46,1.69,0,.51-.31,1-.92,1.46l-2.45.08c-1.02,0-3.48-.18-7.36-.54-3.88-.36-6.77-.54-8.66-.54-1.58,0-3.78.18-6.59.54-2.81.36-6.64.54-11.5.54-.72,0-1.69-.03-2.91-.08l-.15-2.3ZM29.59,95.82c.61-.56,1.64-1.28,3.07-2.15,2.86-1.74,7.79-5.21,14.8-10.42l21.01-17.16c5.77-4.8,9.84-8.58,12.19-11.34.46-.61.82-1.25,1.07-1.91-.92-.66-1.97-1.15-3.14-1.45-1.18-.31-3.04-.54-5.6-.69-2.56-.15-4.08-.4-4.56-.73-.49-.33-.73-.75-.73-1.27,0-.56.18-1,.54-1.3.66-.46,1.61-.69,2.84-.69,1.94,0,3.63.14,5.06.42,1.43.28,4.68.42,9.74.42,1.23,0,2.12-.03,2.68-.08l11.96-.61c1.23-.1,2.17-.15,2.84-.15.61,0,1.53.05,2.76.15,0,1.2-.1,2.17-.31,2.92-5.52.67-9.58,1.51-12.19,2.54-1.48.62-4.5,2.31-9.05,5.07-3.42,2.1-6.54,4.36-9.35,6.76l-19.77,16.64-11.96,9.66c.2.36.51.72.92,1.07.31.26,1.07.97,2.3,2.15,5.36,5.01,12.61,11.15,21.73,18.43,9.12,7.28,16.26,13.37,21.42,18.28,7.56,7.19,14.69,11.17,21.39,11.93,1.64.21,2.81.67,3.53,1.38l.08.84-.15,1.07c-1.74.1-2.91.15-3.53.15-2.35,0-5.9-.17-10.66-.49-2.81-.18-5.14-.27-6.98-.27-7.36,0-15.77.31-25.22.92-.15-.7-.23-1.22-.23-1.57l.08-.6c.66-.6,1.99-1.16,3.99-1.67,2.76-.73,5.67-1.14,8.74-1.25.66,0,1.38-.05,2.15-.15-.51-.83-1.35-1.79-2.53-2.88-.2-.2-.89-.88-2.07-2.03-1.18-1.15-3.25-3.03-6.21-5.63l-9.12-7.28-14.03-11.8c-4.65-3.98-11.14-9.06-19.47-15.24Z"/>
      <path d="M126.55,142.55c.72-.41,1.35-.61,1.92-.61h1.76c.36,0,.97-.03,1.84-.08,3.93-.36,6.26-.71,6.97-1.07,1.79-.97,3.32-2.66,4.6-5.06,2.66-5.21,5.65-12.6,8.97-22.16,1.58-4.55,2.58-7.31,2.99-8.28,1.28-3.07,2.5-6.29,3.68-9.66l7.21-20.16c1.12-3.17,3.83-10.43,8.13-21.77,1.07-2.86,2.38-6.69,3.91-11.5l2.26-.15,2.68.08c2.19,4.34,4.14,9.02,5.82,14.03.92,2.66,2.42,6.62,4.52,11.88l11.64,31.51,6.2,17.1c3.27,9.71,5.42,15.68,6.44,17.9,1.02,2.22,1.97,3.69,2.84,4.41.25.21,1.21.51,2.87.92,1.66.41,2.82.72,3.49.92,2.35.67,3.99,1.23,4.91,1.69.2.56.31,1,.31,1.3,0,.26-.08.64-.23,1.15-1.64.05-2.79.08-3.45.08-2.61,0-7.21-.08-13.8-.23l-7.67-.17-9.28.12c-.61,0-1.24-.03-1.88-.09-.64-.06-1.19-.09-1.65-.09h-1.69c-.56-.05-1.07-.2-1.53-.46,0-.71.13-1.41.38-2.07.61-.31,1.18-.48,1.69-.54l8.05-.54c2.09-.1,3.68-.38,4.75-.84.31-.92.46-1.61.46-2.07,0-.92-.67-3.3-1.99-7.14-.92-2.56-1.72-4.99-2.41-7.3-.69-2.3-3.41-9.88-8.15-22.73-2.1-.36-3.94-.54-5.52-.54l-16.41.15-4.83-.08c-1.74,0-3.65.13-5.75.38-.67,1.53-1.1,2.63-1.3,3.3l-6.76,21.08c-2.86,8.02-4.29,12.45-4.29,13.26,0,.46.23,1.23.69,2.3,1.07.31,2.5.59,4.29.84l10.43.92c.56.46.84.87.84,1.23,0,.26-.08.64-.23,1.15-2.3.05-4.06.08-5.29.08-4.09,0-8.84-.13-14.26-.38-2.5-.1-4.29-.15-5.37-.15s-2.94.05-5.6.15c-1.74.1-2.99.15-3.76.15-1.23,0-2.81-.08-4.75-.23v-.46c0-.36.1-.84.31-1.46ZM163.14,96.55c5.47.31,11.7.46,18.71.46,3.99,0,7.49-.13,10.5-.38-.51-1.99-1.1-3.86-1.76-5.59-3.32-8.89-5.15-13.79-5.51-14.71l-6.97-17.7-.77-1.38c-.31.61-1.43,3.24-3.38,7.89-3.28,7.97-5.63,14.18-7.06,18.62-.67,1.99-1.36,3.97-2.07,5.94s-1.16,3.35-1.34,4.14c-.18.79-.45,1.6-.81,2.41l.46.31Z"/>
      <path d="M253.79,142.63c7.43-.87,11.62-1.48,12.59-1.84.66-.25,1.27-1.02,1.83-2.3v-.84c0-1.28.2-5.9.61-13.86.1-2.25.15-4.44.15-6.59l-.23-9.12.15-10.34-.08-19.23.08-13.79c.05-5.82-.4-9.37-1.34-10.65-.95-1.28-3.39-2.18-7.32-2.72-3.94-.54-6.11-.93-6.52-1.19-.41-.25-.61-.66-.61-1.23,0-.36.08-.82.23-1.38.51-.46,1.69-.72,3.53-.77.26,0,.96-.06,2.11-.19,1.15-.13,2.24-.19,3.26-.19h6.29l20.16-.23c11.4,0,19.38.84,23.96,2.53,4.57,1.69,8.21,4.54,10.92,8.55,2.71,4.01,4.06,8.5,4.06,13.45,0,9.4-4.93,16.59-14.78,21.54-1.68.87-3.01,1.64-3.98,2.3,1.73,3.68,4.16,8.09,7.27,13.25l9.72,16.69c3.88,6.14,6.57,10,8.05,11.56,1.48,1.56,3.28,2.85,5.41,3.88,2.12,1.02,5.69,2,10.7,2.92.05.51.08.92.08,1.23s-.03.69-.08,1.15c-7,.1-15.21.15-24.61.15-.67,0-1.58-.05-2.76-.15-3.63-6.96-7.9-14.61-12.8-22.96l-11.35-20.73c-1.53-2.15-2.8-3.49-3.79-4.03-1-.54-2.31-.81-3.95-.81l-6.52.07-2.15-.07c-.15,1.64-.23,4.98-.23,10.04v26.22c-.05.97.15,2.33.61,4.06.41.97,1.11,1.75,2.11,2.34,1,.59,3.87,1.47,8.62,2.64l3.14.77c.41.51.61,1.2.61,2.07-1.38.25-2.35.38-2.91.38-4.59,0-7.83-.05-9.72-.15-.97-.05-1.76-.08-2.37-.08l-10.41.15-10.18-.08c-.46,0-2.78.08-6.96.23l-1.53-.31-.15-.77c0-.46.36-1,1.07-1.61ZM282.24,92.49c1.38.05,2.4.08,3.07.08,3.68,0,7.92-.43,12.73-1.3,3.37-.66,6.11-1.75,8.2-3.25,2.1-1.5,3.85-3.74,5.25-6.7,1.41-2.96,2.11-6.02,2.11-9.18,0-3.47-1.1-7.14-3.3-11.02-1.69-2.96-4.54-5.43-8.55-7.42-4.01-1.99-8.83-2.99-14.45-2.99-1.38,0-3.17.08-5.37.23-.21,2.65-.31,4.69-.31,6.12l.38,14.31-.08,5.89c0,3.98.1,9.06.31,15.23Z"/>
      <path d="M366.55,142.55c1.12-.46,2.27-.74,3.45-.84,7.82-.51,12.29-1.44,13.42-2.8,1.12-1.36,1.69-7.92,1.69-19.68l-.08-8.06v-8.44l-.31-9.28.15-5.45-.08-5.98v-7.06l-.15-3.15.15-3.99c.05-.92.08-1.99.08-3.22,0-3.22-.15-6.62-.46-10.2-.2-.72-.49-1.41-.84-2.07-1.89-.97-4.94-1.62-9.16-1.96s-6.61-.7-7.17-1.11c-.41-.31-.64-1.1-.69-2.38h6.45l20.35.46c5.22,0,12.18-.15,20.89-.46,0,.82-.05,1.58-.15,2.3-1.02.26-2.73.54-5.14.84-4.86.56-7.82,1.1-8.89,1.61-.66.26-1.15.69-1.46,1.3-.51.92-.82,2.64-.92,5.14l-.38,9.9.31,34.14v13.5c-.1,4.25-.15,7.14-.15,8.67,0,5.73.14,9.39.42,10.97.28,1.59.77,2.72,1.46,3.41.69.69,1.83,1.24,3.41,1.65,2.35.56,4.19.87,5.52.92,2.86.1,4.68.51,5.44,1.23.15.67.23,1.23.23,1.69v.61c-4.66.15-8.09.23-10.29.23-1.28,0-3.56-.08-6.83-.23l-10.6.15-18.05-.08h-1.46l-.15-2.3Z"/>
      <path d="M536.81,51.93l.84,11.65c.31,3.53.46,5.93.46,7.21l-2.15.38c-3.42-7.77-7.68-13.59-12.76-17.48-5.09-3.88-11.31-5.83-18.67-5.83-9,0-16,1.1-21.01,3.3-7.26,3.12-13.47,8.54-18.63,16.25-5.16,7.72-7.74,17.02-7.74,27.91,0,6.29.95,11.93,2.84,16.94,1.89,5.01,4.56,9.67,8.01,13.99,3.45,4.32,7.52,8.06,12.23,11.23,3.07,2.1,6.72,3.68,10.96,4.75,2.4.56,5.98.84,10.73.84,3.07,0,6.46-.43,10.2-1.3,3.73-.87,6.54-2.03,8.43-3.49,1.89-1.46,3.18-3.1,3.87-4.94s1.04-5.42,1.04-10.73c0-8.84-.59-13.99-1.76-15.45-1.18-1.46-4.88-2.42-11.12-2.88l-3.07-.23-2.07.08c-.31-.05-.72-.13-1.23-.23l-1.15-1.92c0-.25.18-.59.54-1,2.66-.41,8.43-.61,17.33-.61,1.99,0,5.24.05,9.74.15l7.9.31,7.13-.08c1.38,0,3.04.05,4.98.15.36.05.59.14.69.27.1.13.15.34.15.65,0,.56-.13,1.28-.38,2.15-2.15.46-3.81.69-4.98.69l-4.98-.08c-1.69,0-3.04.59-4.06,1.76-.51.56-.77,2.48-.77,5.75l.08,10.04c0,6.9-.28,11.3-.84,13.19-.31,1.12-.95,2.13-1.92,3.03-.97.89-3.02,1.95-6.13,3.18-4.45,1.79-8.48,2.99-12.11,3.6-6.75,1.17-13.26,1.76-19.55,1.76-10.12,0-18.41-1.29-24.88-3.87-6.47-2.58-12.04-6.17-16.71-10.77-4.68-4.6-8.01-9.25-10-13.95-3.02-6.9-4.52-13.93-4.52-21.08,0-8.94,2.36-17.7,7.09-26.26,4.73-8.56,12.35-15.52,22.88-20.89,7.41-3.78,17.48-5.67,30.21-5.67,8.79,0,15.98.77,21.58,2.3s10.03,3.27,13.3,5.21Z"/>
      <path d="M578.49,96.02c0-5.21.63-9.85,1.88-13.91,1.25-4.06,3.36-8.47,6.32-13.22,2.96-4.75,6.54-8.73,10.73-11.92,4.19-3.19,9.99-6.02,17.4-8.47,5.21-1.69,11.81-2.53,19.78-2.53,5.37,0,10.62.72,15.75,2.15,5.14,1.43,9.8,3.42,13.99,5.98,4.19,2.56,8.38,6.49,12.57,11.81,2.91,3.68,5.11,7.64,6.59,11.88,1.94,5.57,2.91,11.32,2.91,17.25,0,6.75-.65,12.34-1.96,16.79-1.3,4.45-3.49,8.84-6.55,13.19-2.4,3.37-6.52,7.26-12.34,11.65-3.88,2.96-8.71,5.35-14.49,7.17-5.78,1.81-12.01,2.72-18.71,2.72s-12.85-.79-18.17-2.38c-5.32-1.58-9.75-3.51-13.3-5.79-3.55-2.27-7.21-5.63-10.96-10.08-3.76-4.45-6.61-9.35-8.55-14.72-1.94-5.37-2.91-11.22-2.91-17.56ZM631.7,143.7c4.29,0,8.75-.6,13.38-1.8,4.62-1.2,8.73-3.19,12.3-5.98,3.58-2.78,6.38-5.95,8.39-9.51,2.02-3.55,3.64-8.11,4.87-13.68s1.84-11.14,1.84-16.71c0-6.95-1.02-13.82-3.07-20.62-1.58-5.16-4.17-9.77-7.74-13.84-3.58-4.06-7.9-7.21-12.96-9.43-5.06-2.22-10.45-3.33-16.18-3.33-4.65,0-9.2.77-13.65,2.3s-8.1,3.49-10.96,5.86c-2.86,2.38-5.52,5.75-7.97,10.12-2.45,4.37-4.32,9.19-5.6,14.45-1.28,5.26-1.92,9.92-1.92,13.95,0,4.24.64,9.05,1.92,14.41,1.28,5.37,3.03,10.02,5.25,13.95,2.22,3.94,4.96,7.42,8.2,10.46,3.24,3.04,6.89,5.37,10.92,6.98,4.04,1.61,8.36,2.41,12.96,2.41Z"/>
      <path d="M714.01,142.63c7.43-.87,11.62-1.48,12.59-1.84.66-.25,1.27-1.02,1.83-2.3v-.84c0-1.28.2-5.9.61-13.86.1-2.25.15-4.44.15-6.59l-.23-9.12.15-10.34-.08-19.23.08-13.79c.05-5.82-.4-9.37-1.34-10.65-.95-1.28-3.39-2.18-7.32-2.72-3.94-.54-6.11-.93-6.52-1.19-.41-.25-.61-.66-.61-1.23,0-.36.08-.82.23-1.38.51-.46,1.69-.72,3.53-.77.25,0,.96-.06,2.11-.19,1.15-.13,2.23-.19,3.26-.19h6.29l20.16-.23c11.4,0,19.38.84,23.96,2.53,4.57,1.69,8.21,4.54,10.92,8.55,2.71,4.01,4.06,8.5,4.06,13.45,0,9.4-4.93,16.59-14.78,21.54-1.68.87-3.01,1.64-3.98,2.3,1.73,3.68,4.16,8.09,7.27,13.25l9.72,16.69c3.88,6.14,6.57,10,8.05,11.56,1.48,1.56,3.28,2.85,5.41,3.88,2.12,1.02,5.69,2,10.7,2.92.05.51.08.92.08,1.23s-.03.69-.08,1.15c-7,.1-15.21.15-24.61.15-.67,0-1.58-.05-2.76-.15-3.63-6.96-7.9-14.61-12.8-22.96l-11.35-20.73c-1.53-2.15-2.8-3.49-3.79-4.03-1-.54-2.31-.81-3.95-.81l-6.52.07-2.15-.07c-.15,1.64-.23,4.98-.23,10.04v26.22c-.05.97.15,2.33.61,4.06.41.97,1.11,1.75,2.11,2.34,1,.59,3.87,1.47,8.62,2.64l3.14.77c.41.51.61,1.2.61,2.07-1.38.25-2.35.38-2.91.38-4.59,0-7.83-.05-9.72-.15-.97-.05-1.76-.08-2.37-.08l-10.41.15-10.18-.08c-.46,0-2.78.08-6.96.23l-1.53-.31-.15-.77c0-.46.36-1,1.07-1.61ZM742.46,92.49c1.38.05,2.4.08,3.07.08,3.68,0,7.92-.43,12.73-1.3,3.37-.66,6.11-1.75,8.2-3.25,2.1-1.5,3.85-3.74,5.25-6.7,1.4-2.96,2.11-6.02,2.11-9.18,0-3.47-1.1-7.14-3.3-11.02-1.69-2.96-4.54-5.43-8.55-7.42-4.01-1.99-8.83-2.99-14.45-2.99-1.38,0-3.17.08-5.37.23-.21,2.65-.31,4.69-.31,6.12l.38,14.31-.08,5.89c0,3.98.1,9.06.31,15.23Z"/>
      <path d="M881.73,142.54c1.12-.46,2.27-.74,3.45-.85,7.82-.51,12.29-1.45,13.42-2.81,1.12-1.36,1.69-7.95,1.69-19.77l-.08-8.09v-8.48l-.31-9.33.15-5.47-.08-6.01v-7.09l-.15-3.16.15-4.01c.05-.92.08-2,.08-3.24,0-3.24-.15-6.66-.46-10.25-.21-.72-.49-1.41-.84-2.08-1.89-.98-4.94-1.63-9.16-1.97s-6.61-.71-7.17-1.12c-.41-.31-.64-1.1-.69-2.39h6.45l20.35.46c5.22,0,12.18-.15,20.89-.46,0,.82-.05,1.59-.15,2.31-1.02.26-2.73.54-5.14.85-4.86.57-7.82,1.11-8.89,1.62-.67.26-1.15.69-1.46,1.31-.51.93-.82,2.65-.92,5.17l-.38,9.94.31,34.3v13.57c-.1,4.27-.15,7.17-.15,8.71,0,5.76.14,9.43.42,11.02.28,1.59.77,2.74,1.46,3.43.69.69,1.83,1.25,3.41,1.66,2.35.57,4.19.88,5.52.93,2.86.1,4.68.51,5.44,1.23.15.67.23,1.23.23,1.69v.62c-4.66.15-8.09.23-10.29.23-1.28,0-3.56-.08-6.83-.23l-10.6.15-18.04-.08h-1.46l-.15-2.31Z"/>
      <path d="M951.78,51.24l-.08-3.68c7.92,0,13.72-.2,17.4-.61,1.43-.15,2.43-.23,2.99-.23.46,0,1.15.03,2.07.08,2.15,1.79,4.14,3.83,5.98,6.13.41.46.87.97,1.38,1.53l16.18,17.86,2.3,2.76c3.27,3.83,6.25,7.1,8.93,9.81,2.68,2.71,7.91,8.36,15.68,16.94l18.32,20.32c1.79,1.99,4.09,4.47,6.9,7.44l.08-1.23c-.31-7.1-.46-10.86-.46-11.27l.31-4.6-.15-7.21v-3.3c0-2.09-.18-8.56-.54-19.4-.05-1.48-.26-4.28-.61-8.39-.36-4.11-.54-7.73-.54-10.85,0-5.62-.33-8.89-1-9.81-.46-.66-2.63-1.35-6.52-2.07-.92-.05-2.35-.2-4.29-.46-2.3-.1-3.65-.23-4.06-.38-.41-.15-.82-.59-1.23-1.3.1-.82.33-1.58.69-2.3,1.38-.41,2.73-.61,4.06-.61,1.43,0,3.21.18,5.33.54,2.12.36,4.02.54,5.71.54,2.35,0,6-.15,10.96-.46,2.81-.2,4.75-.31,5.83-.31h1.3l-.15,2.38c-.82.36-1.94.58-3.37.65s-2.76.29-3.99.65c-1.84.56-2.94,1.05-3.3,1.46-1.23,1.33-1.84,2.68-1.84,4.06l.84,24.23.61,11.12-.08,3.22.46,15.41c.31,10.53.46,19.68.46,27.45,0,1.69-.1,5.34-.31,10.96l-3.57.31c-1.79-2.04-7.95-8.48-18.48-19.32-2.45-2.5-4.12-4.27-4.98-5.29l-6.59-7.59c-2.56-2.81-4.22-4.6-4.99-5.37s-1.33-1.33-1.69-1.69c-5.57-6.34-12.81-14.26-21.7-23.77-2.4-2.55-5.93-6.54-10.58-11.96-2.92-3.42-4.76-5.52-5.52-6.29s-1.81-1.63-3.14-2.61l-.23,2.61c0,9.97.25,23.72.77,41.24l.54,25.38c.05,2.15.18,4.22.38,6.21l2.68.61c4.86.46,9.63,1.15,14.34,2.07.36.31.66.54.92.69l-.08,2.91c-.82.25-1.48.38-1.99.38-.56,0-1.25-.05-2.07-.15-5.06-.41-11.22-.61-18.48-.61-5.11,0-9.61.13-13.49.38l-1.07.08c-.46,0-1.12-.05-1.99-.15l-.08-2.3,1.99-.92,3.6-.54c3.22-.46,5.57-.97,7.05-1.53.97-.36,1.76-.89,2.38-1.61.56-3.53.84-8.69.84-15.49,0-3.17-.08-8.97-.23-17.4v-10.43l-.15-21.77c-.1-9.71-.44-15.43-1-17.17-.31-.92-.95-1.74-1.92-2.45-1.94-1.38-4.48-2.25-7.63-2.61-3.14-.36-5.17-.66-6.09-.92Z"/>
      <path d="M1089.22,58.37l3.14-11.58c.2-1.53.48-2.52.84-2.95.36-.43.77-.65,1.23-.65.92,0,1.97,1.1,3.14,3.3.87,1.58,1.58,2.59,2.15,3.03.56.43,1.38.73,2.45.88l.77-.08,3.3.31,18.09.23,21.39-.07h6.29l11.88-.22c.51,0,1.15.05,1.92.15,3.47.3,5.62.46,6.44.46.77,0,1.38-.25,1.84-.75.15-.2,1-1.88,2.53-5.06.66-1.44,1.48-2.16,2.45-2.16.41,0,.92.1,1.53.3.25,1.01.38,1.93.38,2.74l-.08,3.04.08,6.47c0,1.57-.13,6.64-.38,15.21,0,.56-.1,1.07-.31,1.52-.56.36-1.05.53-1.46.53s-.77-.19-1.07-.57c-.31-.38-.69-1.56-1.15-3.53-1.02-4.56-2.3-7.83-3.83-9.8-1.02-1.27-2.49-2.18-4.41-2.74-1.92-.56-6.5-.84-13.76-.84h-12.96c-.1,2.05-.15,3.91-.15,5.6l.61,47.65c0,1.89-.1,5.47-.31,10.74l.08,10.21-.08,5.68c0,1.79.31,3.07.92,3.84.61.77,2.27,1.51,4.98,2.22,4.7,1.18,7.84,1.89,9.43,2.15.97.1,1.76.31,2.38.61v2.3l-10.89-.27c-5.98-.04-10.48-.16-13.49-.34l-11.19.54-8.2.46c-2.3,0-3.71-.05-4.22-.15l-1.07-.46c.1-1.18.33-1.93.69-2.26.36-.33,1.3-.6,2.84-.81,2.15-.31,4.68-.85,7.59-1.65,2.91-.79,4.83-1.6,5.75-2.42.51-.46.87-1.23,1.07-2.3.46-2.25.69-6.67.69-13.26v-13.03l-.31-28.44-.31-6.13-.08-20.47h-12.34c-7.36,0-11.83.45-13.42,1.34-2.5,1.39-6.24,5.45-11.19,12.2-1.64,2.53-3.07,3.79-4.29,3.79l-.69-.15c-.2-.31-.31-.59-.31-.84,0-.61.41-2.45,1.23-5.52,1.02-3.94,1.63-6.59,1.84-7.97Z"/>
      <path d="M1202.51,143.83c.51-.45.95-.72,1.3-.82.87-.26,2.35-.46,4.45-.61,4.96-.31,8.02-.77,9.2-1.38.71-1.02,1.07-2.46,1.07-4.3l-.08-5.38.08-19.5-.15-9.21.08-19.27-.38-21.88c-.05-5.22-.38-8.17-1-8.83-.92-.97-3.66-1.54-8.2-1.69-1.94-.05-3.66-.2-5.14-.46-.67-.36-1-.82-1-1.38,0-.41.13-.89.38-1.46.46-.26.87-.38,1.23-.38.71,0,1.58.03,2.61.08,3.02.31,6.13.46,9.35.46l5.67-.15,13.49.31c6.75,0,12.01-.08,15.79-.23,3.78-.15,6.34-.23,7.67-.23,1.17,0,4.09.1,8.74.31l10.89-.08,1.3.23,6.36-.23.77.38c.25.41.43.84.54,1.3,0,.72-.12,1.81-.34,3.3-.23,1.48-.34,2.4-.34,2.76,0,5.32.18,9.81.54,13.49-.05.31-.2.51-.45.61-.55,0-1.05-.08-1.5-.23-.56-.97-1.32-2.68-2.26-5.14s-2.37-5.29-4.26-8.51c-1.28-2.15-2.28-3.42-2.99-3.83-.72-.41-2.2-.61-4.45-.61-.46,0-2.79-.05-6.98-.15-1.13-.05-2.23-.08-3.3-.08l-21.87.46h-1.92c-2.81,0-4.5.36-5.06,1.07-.87,1.23-1.3,4.83-1.3,10.81,0,.61.13,6.75.38,18.4v10.66c.56.15,1.17.23,1.84.23h1.3c.87,0,2.15.03,3.83.08,2.66.1,4.45.15,5.37.15.61,0,1.15-.03,1.61-.08,5.52-.2,12.62-.31,21.31-.31,2.71-.46,4.29-1,4.75-1.61.77-.92,1.34-3.32,1.72-7.21.38-3.88,1.24-6.08,2.57-6.59.66,0,1.28.13,1.84.38.1.41.15.79.15,1.15s-.05.95-.15,1.76c-.26,1.89-.38,7.82-.38,17.79,0,2.66.14,5.62.42,8.89.28,3.27.42,5.04.42,5.29,0,.46-.08,1.07-.23,1.84-.41.21-.74.31-1,.31h-.54c-.82-1.43-1.61-3.65-2.38-6.67-1.33-5.16-2.72-8.39-4.18-9.7-1.46-1.3-3.82-1.96-7.09-1.96-.72,0-2.02.04-3.91.12-1.89.08-4.7.12-8.43.12h-4.98c-7.1,0-11.75.15-13.95.46l-.08,2.53.08,14.13-.08,8.91.08,8.68c.05,5.22.38,8.24,1,9.06.87,1.13,2.76,1.69,5.67,1.69l4.68-.08c.41,0,2.01.04,4.79.12,2.79.08,6.22.11,10.31.11,9.86,0,16.43-.42,19.7-1.27s5.97-2.35,8.09-4.5c2.12-2.15,4.79-6.79,8.01-13.92.97-2.1,1.94-3.15,2.91-3.15.46,0,.97.2,1.53.61-1.48,5.06-2.33,8.38-2.53,9.97-.56,3.58-.89,7.23-1,10.96,0,1.69-.41,3.09-1.23,4.22h-1.69l-21.54.23-9.66-.08-23,.31h-9.35c-1.18,0-2.27.02-3.3.08-9.2.41-15.97.61-20.32.61-.77,0-1.29-.12-1.57-.37-.28-.25-.42-.62-.42-1.12l.08-.75Z"/>
      <path d="M1321.78,142.63c7.43-.87,11.62-1.48,12.59-1.84.66-.25,1.27-1.02,1.83-2.3v-.84c0-1.28.2-5.9.61-13.86.1-2.25.15-4.44.15-6.59l-.23-9.12.15-10.34-.08-19.23.08-13.79c.05-5.82-.4-9.37-1.34-10.65-.95-1.28-3.39-2.18-7.32-2.72-3.94-.54-6.11-.93-6.52-1.19-.41-.25-.61-.66-.61-1.23,0-.36.08-.82.23-1.38.51-.46,1.69-.72,3.53-.77.25,0,.96-.06,2.11-.19,1.15-.13,2.23-.19,3.26-.19h6.29l20.16-.23c11.4,0,19.38.84,23.96,2.53,4.57,1.69,8.21,4.54,10.92,8.55,2.71,4.01,4.06,8.5,4.06,13.45,0,9.4-4.93,16.59-14.78,21.54-1.68.87-3.01,1.64-3.98,2.3,1.73,3.68,4.16,8.09,7.27,13.25l9.72,16.69c3.88,6.14,6.57,10,8.05,11.56,1.48,1.56,3.28,2.85,5.41,3.88,2.12,1.02,5.69,2,10.7,2.92.05.51.08.92.08,1.23s-.03.69-.08,1.15c-7,.1-15.21.15-24.61.15-.67,0-1.58-.05-2.76-.15-3.63-6.96-7.9-14.61-12.8-22.96l-11.35-20.73c-1.53-2.15-2.8-3.49-3.79-4.03-1-.54-2.31-.81-3.95-.81l-6.52.07-2.15-.07c-.15,1.64-.23,4.98-.23,10.04v26.22c-.05.97.15,2.33.61,4.06.41.97,1.11,1.75,2.11,2.34,1,.59,3.87,1.47,8.62,2.64l3.14.77c.41.51.61,1.2.61,2.07-1.38.25-2.35.38-2.91.38-4.59,0-7.83-.05-9.72-.15-.97-.05-1.76-.08-2.37-.08l-10.41.15-10.18-.08c-.46,0-2.78.08-6.96.23l-1.53-.31-.15-.77c0-.46.36-1,1.07-1.61ZM1350.22,92.49c1.38.05,2.4.08,3.07.08,3.68,0,7.92-.43,12.73-1.3,3.37-.66,6.11-1.75,8.2-3.25,2.1-1.5,3.85-3.74,5.25-6.7,1.4-2.96,2.11-6.02,2.11-9.18,0-3.47-1.1-7.14-3.3-11.02-1.69-2.96-4.54-5.43-8.55-7.42-4.01-1.99-8.83-2.99-14.45-2.99-1.38,0-3.17.08-5.37.23-.21,2.65-.31,4.69-.31,6.12l.38,14.31-.08,5.89c0,3.98.1,9.06.31,15.23Z"/>
      <path d="M1434.54,142.55c1.12-.46,2.27-.74,3.45-.84,7.82-.51,12.29-1.44,13.42-2.8,1.12-1.36,1.69-7.92,1.69-19.68l-.08-8.06v-8.44l-.31-9.28.15-5.45-.08-5.98v-7.06l-.15-3.15.15-3.99c.05-.92.08-1.99.08-3.22,0-3.22-.15-6.62-.46-10.2-.21-.72-.49-1.41-.84-2.07-1.89-.97-4.94-1.62-9.16-1.96s-6.61-.7-7.17-1.11c-.41-.31-.64-1.1-.69-2.38h6.45l20.35.46c5.22,0,12.18-.15,20.89-.46,0,.82-.05,1.58-.15,2.3-1.02.26-2.73.54-5.14.84-4.86.56-7.82,1.1-8.89,1.61-.67.26-1.15.69-1.46,1.3-.51.92-.82,2.64-.92,5.14l-.38,9.9.31,34.14v13.5c-.1,4.25-.15,7.14-.15,8.67,0,5.73.14,9.39.42,10.97.28,1.59.77,2.72,1.46,3.41.69.69,1.83,1.24,3.41,1.65,2.35.56,4.19.87,5.52.92,2.86.1,4.68.51,5.44,1.23.15.67.23,1.23.23,1.69v.61c-4.66.15-8.09.23-10.29.23-1.28,0-3.56-.08-6.83-.23l-10.6.15-18.04-.08h-1.46l-.15-2.3Z"/>
      <path d="M1509.73,96.02c0-5.21.63-9.85,1.88-13.91,1.25-4.06,3.36-8.47,6.32-13.22,2.96-4.75,6.54-8.73,10.73-11.92,4.19-3.19,9.99-6.02,17.4-8.47,5.21-1.69,11.81-2.53,19.78-2.53,5.37,0,10.62.72,15.75,2.15,5.14,1.43,9.8,3.42,13.99,5.98,4.19,2.56,8.38,6.49,12.57,11.81,2.91,3.68,5.11,7.64,6.59,11.88,1.94,5.57,2.91,11.32,2.91,17.25,0,6.75-.65,12.34-1.96,16.79-1.3,4.45-3.49,8.84-6.55,13.19-2.4,3.37-6.52,7.26-12.34,11.65-3.88,2.96-8.71,5.35-14.49,7.17-5.78,1.81-12.01,2.72-18.71,2.72s-12.85-.79-18.17-2.38c-5.32-1.58-9.75-3.51-13.3-5.79-3.55-2.27-7.21-5.63-10.96-10.08-3.76-4.45-6.61-9.35-8.55-14.72s-2.91-11.22-2.91-17.56ZM1562.93,143.7c4.29,0,8.75-.6,13.38-1.8,4.62-1.2,8.73-3.19,12.3-5.98,3.58-2.78,6.38-5.95,8.39-9.51,2.02-3.55,3.64-8.11,4.87-13.68s1.84-11.14,1.84-16.71c0-6.95-1.02-13.82-3.07-20.62-1.58-5.16-4.17-9.77-7.74-13.84-3.58-4.06-7.9-7.21-12.96-9.43-5.06-2.22-10.45-3.33-16.18-3.33-4.65,0-9.2.77-13.65,2.3s-8.1,3.49-10.96,5.86c-2.86,2.38-5.52,5.75-7.97,10.12-2.45,4.37-4.32,9.19-5.6,14.45-1.28,5.26-1.92,9.92-1.92,13.95,0,4.24.64,9.05,1.92,14.41,1.28,5.37,3.03,10.02,5.25,13.95,2.22,3.94,4.96,7.42,8.2,10.46,3.25,3.04,6.89,5.37,10.92,6.98,4.04,1.61,8.36,2.41,12.96,2.41Z"/>
      <path d="M1645.25,142.63c7.43-.87,11.62-1.48,12.59-1.84.66-.25,1.27-1.02,1.83-2.3v-.84c0-1.28.2-5.9.61-13.86.1-2.25.15-4.44.15-6.59l-.23-9.12.15-10.34-.08-19.23.08-13.79c.05-5.82-.4-9.37-1.34-10.65-.95-1.28-3.39-2.18-7.32-2.72-3.94-.54-6.11-.93-6.52-1.19-.41-.25-.61-.66-.61-1.23,0-.36.08-.82.23-1.38.51-.46,1.69-.72,3.53-.77.25,0,.96-.06,2.11-.19,1.15-.13,2.23-.19,3.26-.19h6.29l20.16-.23c11.4,0,19.38.84,23.96,2.53,4.57,1.69,8.21,4.54,10.92,8.55,2.71,4.01,4.06,8.5,4.06,13.45,0,9.4-4.93,16.59-14.78,21.54-1.68.87-3.01,1.64-3.98,2.3,1.73,3.68,4.16,8.09,7.27,13.25l9.72,16.69c3.88,6.14,6.57,10,8.05,11.56,1.48,1.56,3.28,2.85,5.41,3.88,2.12,1.02,5.69,2,10.7,2.92.05.51.08.92.08,1.23s-.03.69-.08,1.15c-7,.1-15.21.15-24.61.15-.67,0-1.58-.05-2.76-.15-3.63-6.96-7.9-14.61-12.8-22.96l-11.35-20.73c-1.53-2.15-2.8-3.49-3.79-4.03-1-.54-2.31-.81-3.95-.81l-6.52.07-2.15-.07c-.15,1.64-.23,4.98-.23,10.04v26.22c-.05.97.15,2.33.61,4.06.41.97,1.11,1.75,2.11,2.34,1,.59,3.87,1.47,8.62,2.64l3.14.77c.41.51.61,1.2.61,2.07-1.38.25-2.35.38-2.91.38-4.59,0-7.83-.05-9.72-.15-.97-.05-1.76-.08-2.37-.08l-10.41.15-10.18-.08c-.46,0-2.78.08-6.96.23l-1.53-.31-.15-.77c0-.46.36-1,1.07-1.61ZM1673.69,92.49c1.38.05,2.4.08,3.07.08,3.68,0,7.92-.43,12.73-1.3,3.37-.66,6.11-1.75,8.2-3.25,2.1-1.5,3.85-3.74,5.25-6.7,1.4-2.96,2.11-6.02,2.11-9.18,0-3.47-1.1-7.14-3.3-11.02-1.69-2.96-4.54-5.43-8.55-7.42-4.01-1.99-8.83-2.99-14.45-2.99-1.38,0-3.17.08-5.37.23-.21,2.65-.31,4.69-.31,6.12l.38,14.31-.08,5.89c0,3.98.1,9.06.31,15.23Z"/>
      <path class="cls-1" d="M905.57,8c6.45,0,11.7,5.25,11.7,11.7s-5.25,11.7-11.7,11.7-11.7-5.25-11.7-11.7,5.25-11.7,11.7-11.7M905.57,0c-10.88,0-19.7,8.82-19.7,19.7s8.82,19.7,19.7,19.7,19.7-8.82,19.7-19.7-8.82-19.7-19.7-19.7h0Z"/>
    </g>
  </g>
</svg>